# xmcd
# 
# Track frame offsets:
#     150
#     32385
#     53812
#     78877
#     105592
#     157067
#     185630
# 
# Disc length: 2803
# 
# Revision: 1
# Processed by: cddbd v1.5.2PL0 Copyright (c) Steve Scherf et al.
# Submitted via: BonkEnc v1.0.8
# 
DISCID=4d0af107
DTITLE=Thad Jones, Mel Lewis - Suite For Pops
DYEAR=1972
DGENRE=Big Band
TTITLE0=Meetin' Place
TTITLE1=The Summary
TTITLE2=The Farewell
TTITLE3=Toledo By Candlelight
TTITLE4=The Great One
TTITLE5=Only For Now
TTITLE6=A Good Time Was Had By All
EXTD=YEAR: 1972
EXTT0=
EXTT1=
EXTT2=
EXTT3=
EXTT4=
EXTT5=
EXTT6=
PLAYORDER=
